<?xml version="1.0" standalone="no"?>
<!DOCTYPE svg PUBLIC "-//W3C//DTD SVG 20010904//EN"
 "http://www.w3.org/TR/2001/REC-SVG-20010904/DTD/svg10.dtd">
<svg version="1.0" xmlns="http://www.w3.org/2000/svg"
 width="512.000000pt" height="512.000000pt" viewBox="0 0 512.000000 512.000000"
 preserveAspectRatio="xMidYMid meet">
<metadata>
Created by potrace 1.14, written by Peter Selinger 2001-2017
</metadata>
<g transform="translate(0.000000,512.000000) scale(0.100000,-0.100000)"
fill="#000000" stroke="none">
<path d="M3653 4945 c-150 -157 -282 -418 -322 -640 -6 -33 -13 -69 -15 -81
-17 -85 -24 -393 -12 -537 l3 -48 -56 6 c-31 3 -81 9 -111 12 -136 15 -470 8
-564 -13 -12 -3 -32 -7 -46 -10 -20 -4 -75 -18 -110 -29 -3 -1 -18 -5 -35 -10
-16 -4 -36 -13 -44 -19 -8 -6 -16 -10 -17 -9 -2 1 -25 -7 -51 -19 -27 -12 -50
-22 -53 -23 -8 -2 -83 -44 -115 -65 -16 -11 -40 -25 -52 -31 -13 -7 -23 -16
-23 -20 0 -5 -11 -14 -25 -21 -64 -34 -285 -262 -323 -335 -7 -12 -18 -28 -24
-35 -31 -34 -103 -181 -138 -281 -35 -102 -68 -255 -78 -367 -8 -79 -8 -438 0
-470 3 -16 -2 -17 -92 -6 -166 19 -396 25 -505 12 -100 -12 -197 -29 -240 -43
-11 -4 -27 -8 -35 -10 -25 -6 -52 -15 -100 -35 -14 -5 -25 -9 -25 -7 0 1 -11
-4 -25 -11 -14 -8 -27 -15 -30 -15 -7 -1 -89 -46 -115 -62 -11 -7 -28 -16 -37
-19 -10 -3 -18 -10 -18 -15 0 -5 -6 -9 -14 -9 -8 0 -16 -4 -18 -8 -2 -5 -29
-27 -61 -51 -60 -44 -81 -77 -71 -115 6 -25 14 -33 399 -441 28 -29 106 -112
175 -186 69 -73 157 -167 197 -208 39 -42 92 -98 118 -126 41 -43 165 -175
341 -361 40 -42 58 -54 88 -58 35 -4 42 -1 87 47 168 178 299 444 334 679 4
23 8 45 10 49 16 25 24 395 12 525 l-6 61 42 -3 c23 -1 56 -5 72 -8 80 -12
415 -26 415 -16 0 3 24 6 53 7 28 1 68 4 87 6 37 5 43 6 160 33 41 10 77 19
80 19 3 0 14 6 25 12 11 6 25 12 30 13 6 2 24 8 40 14 17 5 33 9 38 8 4 -1 7
2 7 7 0 5 21 18 48 29 98 42 278 175 376 277 217 227 323 439 381 760 18 96
27 435 16 538 -7 54 -4 62 21 58 16 -2 107 -12 173 -18 134 -14 431 -6 515 12
14 3 38 8 54 10 16 3 54 12 85 21 31 10 58 18 61 18 21 4 132 50 136 57 3 5
12 9 20 9 8 0 32 11 54 25 22 14 40 23 40 20 0 -3 6 -1 13 5 6 5 53 40 104 76
94 69 121 104 109 146 -6 24 -17 36 -241 273 -79 83 -167 176 -196 208 -30 32
-81 87 -114 121 -33 35 -118 125 -190 201 -71 76 -146 155 -165 175 -19 20
-96 102 -170 181 -178 189 -209 219 -223 220 -7 0 -21 2 -32 4 -14 3 -38 -14
-82 -60z m314 -383 c48 -51 123 -130 166 -175 42 -45 77 -85 77 -90 0 -4 5 -5
10 -2 6 3 10 2 10 -4 0 -5 24 -34 53 -64 28 -30 99 -105 157 -166 58 -61 149
-158 202 -214 54 -56 98 -105 98 -109 0 -9 -70 -55 -84 -56 -5 0 -12 -4 -15
-9 -7 -11 -96 -53 -111 -53 -5 0 -10 -4 -10 -8 0 -4 -8 -8 -17 -9 -10 -1 -30
-5 -44 -8 -27 -7 -47 10 -189 165 -45 49 -282 300 -356 377 -34 34 -60 63 -58
63 1 0 -23 26 -54 58 -31 32 -70 72 -85 89 l-29 31 37 78 c37 80 85 161 119
202 14 16 22 19 27 10 4 -7 47 -54 96 -106z m-27 -692 c121 -129 183 -195 256
-270 l44 -46 -32 -3 c-51 -6 -206 -4 -278 3 -36 4 -94 9 -129 12 -35 3 -73 9
-83 15 -11 6 -18 6 -18 0 0 -5 -11 -5 -28 1 -26 10 -29 17 -31 57 0 25 -3 57
-6 71 -6 31 -7 358 -1 385 3 11 5 36 5 55 l1 35 93 -96 c50 -53 144 -152 207
-219z m-971 -535 c47 -1 86 -3 86 -4 0 -1 27 -4 60 -6 33 -2 71 -6 85 -10 14
-3 49 -7 78 -9 29 -2 55 -5 57 -8 8 -8 19 -200 19 -333 0 -123 -5 -207 -20
-303 -7 -44 -21 -63 -33 -44 -5 9 -132 145 -281 302 -42 44 -244 259 -317 338
-29 31 -53 59 -53 62 0 6 69 12 152 14 32 0 58 5 58 9 0 5 5 5 11 1 7 -4 50
-8 98 -9z m-486 -88 c12 -12 43 -46 69 -74 26 -28 49 -48 52 -45 3 3 6 1 6 -5
0 -11 12 -24 159 -179 47 -50 142 -151 211 -224 69 -73 159 -169 201 -213 l77
-80 -15 -36 c-33 -79 -153 -241 -179 -241 -8 0 -14 3 -14 8 0 4 -36 45 -81 92
-44 47 -117 125 -162 173 -45 49 -113 121 -152 161 -60 63 -243 257 -355 377
-19 20 -57 61 -85 90 -30 32 -44 54 -37 57 7 2 25 14 40 26 44 36 209 131 235
135 4 0 18 -9 30 -22z m-322 -379 c57 -61 122 -130 144 -153 22 -23 96 -102
165 -175 69 -73 143 -152 165 -175 50 -53 254 -270 290 -309 l26 -28 -33 -24
c-18 -13 -44 -32 -57 -41 -13 -10 -28 -17 -33 -16 -4 2 -8 -1 -8 -5 0 -8 -46
-35 -63 -36 -4 -1 -12 -8 -17 -16 -5 -8 -10 -11 -10 -6 0 5 -6 3 -13 -3 -35
-29 -61 -20 -119 43 -116 123 -264 280 -303 321 -22 23 -92 97 -155 164 -63
68 -152 161 -197 209 l-82 85 29 57 c30 60 146 220 159 220 4 0 54 -50 112
-112z m-86 -633 c134 -143 200 -213 311 -329 47 -49 82 -91 79 -94 -24 -24
-313 -29 -470 -8 -16 2 -57 7 -90 11 -33 3 -73 8 -88 10 -16 2 -30 5 -32 7 -7
7 -18 192 -18 318 -1 159 10 300 29 360 5 14 50 -30 279 -275z m-885 -659 c52
-3 106 -9 120 -12 21 -4 107 -14 147 -17 17 -1 21 -18 29 -122 12 -167 6 -457
-10 -473 -3 -2 -17 9 -31 24 -95 103 -144 155 -269 288 -280 297 -290 307
-278 314 12 8 157 7 292 -2z m-384 -162 c66 -69 144 -152 174 -184 30 -31 107
-113 170 -180 63 -68 142 -151 175 -185 33 -35 70 -74 83 -88 l24 -25 -31 -73
c-17 -41 -55 -109 -83 -152 l-53 -77 -85 89 c-47 49 -139 146 -205 217 -66 70
-140 149 -165 174 -25 26 -92 98 -150 160 -58 62 -144 153 -193 203 -48 51
-86 96 -84 101 2 5 18 17 37 27 18 10 37 23 40 30 4 6 10 10 14 10 3 -1 20 6
36 14 17 9 30 12 30 8 0 -5 4 -3 8 4 6 9 112 52 133 53 4 0 60 -57 125 -126z"/>
</g>
</svg>
